<?xml version="1.0" standalone="no"?>
<!DOCTYPE svg PUBLIC "-//W3C//DTD SVG 20010904//EN"
 "http://www.w3.org/TR/2001/REC-SVG-20010904/DTD/svg10.dtd">
<svg version="1.0" xmlns="http://www.w3.org/2000/svg"
 width="1280.000000pt" height="1232.000000pt" viewBox="0 0 1280.000000 1232.000000"
 preserveAspectRatio="xMidYMid meet">
<g transform="translate(0.000000,1232.000000) scale(0.100000,-0.100000)"
fill="#000000" stroke="none">
<path d="M6327 12304 c-19 -11 -87 -104 -205 -282 -780 -1183 -1429 -2045
-2122 -2817 -210 -233 -773 -792 -1012 -1003 -713 -631 -1439 -1156 -2368
-1712 -162 -97 -357 -212 -433 -255 -124 -70 -187 -121 -187 -150 0 -33 71
-87 288 -216 2604 -1562 4238 -3055 5629 -5144 109 -165 384 -599 412 -652 6
-12 27 -34 47 -49 35 -27 36 -27 68 -10 36 19 31 11 149 216 921 1594 1908
2812 3127 3855 812 696 1767 1337 2838 1905 135 72 200 112 217 134 32 42 32
48 -7 89 -25 25 -70 48 -178 91 -504 201 -1084 481 -1546 746 -1906 1097
-3309 2660 -4515 5033 -80 157 -108 203 -133 218 -37 22 -34 22 -69 3z"/>
</g>
</svg>
